<?xml version="1.0" standalone="no"?>
<!DOCTYPE svg PUBLIC "-//W3C//DTD SVG 20010904//EN"
 "http://www.w3.org/TR/2001/REC-SVG-20010904/DTD/svg10.dtd">
<svg version="1.0" xmlns="http://www.w3.org/2000/svg"
 width="1905.000000pt" height="966.000000pt" viewBox="0 0 1905.000000 966.000000"
 preserveAspectRatio="xMidYMid meet">

<g transform="translate(0.000000,966.000000) scale(0.100000,-0.100000)"
fill="#000000" stroke="none">
<path d="M2095 9474 c-104 -30 -212 -60 -240 -66 -69 -18 -74 -32 -69 -187 2
-69 6 -181 8 -249 4 -142 -3 -187 -35 -210 -63 -45 -165 -104 -185 -108 -29
-5 -83 17 -337 140 -109 53 -207 96 -217 96 -23 0 -45 -21 -180 -174 -58 -65
-124 -140 -147 -166 -28 -32 -43 -58 -43 -75 0 -19 48 -99 150 -251 83 -123
150 -234 150 -246 0 -35 -102 -243 -129 -263 -22 -17 -223 -47 -525 -79 -59
-7 -73 -28 -96 -146 -11 -58 -27 -138 -35 -178 -21 -102 -31 -242 -17 -242 6
0 44 -15 84 -34 40 -19 118 -53 173 -76 55 -23 124 -52 152 -65 29 -14 64 -27
78 -31 46 -12 56 -39 82 -244 15 -114 12 -121 -73 -192 -85 -70 -294 -247
-336 -284 -40 -35 -36 -64 26 -195 66 -140 103 -222 123 -271 24 -61 37 -62
337 -12 299 50 289 51 348 -22 18 -23 61 -73 96 -113 48 -56 62 -78 62 -104 0
-17 -34 -139 -75 -271 -41 -131 -75 -251 -75 -267 0 -34 24 -58 105 -105 33
-19 87 -52 120 -74 118 -76 194 -120 209 -120 13 0 189 151 374 322 75 69 82
70 226 29 55 -16 115 -32 132 -36 55 -11 69 -38 123 -240 74 -279 89 -327 106
-345 14 -13 51 -15 250 -13 172 1 241 5 261 15 32 15 28 3 110 308 66 244 71
257 98 275 12 8 79 32 149 54 98 31 134 38 153 31 13 -5 54 -37 91 -71 265
-243 313 -284 346 -291 28 -6 50 6 217 119 240 162 233 157 227 214 -3 25 -19
85 -36 135 -78 234 -115 362 -113 393 2 25 21 56 77 126 41 50 85 96 97 102
17 7 83 1 247 -23 123 -18 244 -37 268 -44 56 -14 87 3 109 58 9 20 21 51 28
67 84 190 156 364 156 377 0 23 -37 59 -215 203 -255 208 -240 191 -238 272 2
95 21 178 47 201 11 11 109 56 216 102 242 103 287 125 300 149 7 14 4 51 -9
133 -11 62 -29 176 -41 253 -12 77 -28 149 -35 161 -11 18 -33 24 -127 37 -62
9 -142 19 -178 22 -112 11 -272 35 -291 46 -22 11 -99 172 -99 205 0 14 64
120 150 250 116 175 150 233 150 258 0 28 -22 58 -151 202 -213 239 -207 234
-230 234 -11 0 -130 -54 -266 -120 -135 -66 -254 -120 -265 -120 -44 0 -183
91 -196 128 -5 15 -7 149 -4 297 4 252 3 272 -15 293 -12 15 -56 33 -138 57
-66 19 -180 53 -254 75 -121 36 -137 39 -156 26 -12 -8 -55 -68 -95 -133 -40
-65 -83 -134 -95 -153 -33 -52 -62 -100 -86 -145 -12 -22 -29 -45 -38 -52 -20
-16 -214 -17 -242 -2 -22 11 -61 70 -199 299 -111 185 -123 200 -164 199 -17
-1 -116 -25 -221 -55z"/>
<path d="M12911 7630 c-333 -47 -590 -270 -686 -595 -37 -122 -46 -348 -21
-476 64 -315 280 -546 591 -630 115 -31 345 -31 460 0 308 83 523 306 595 614
27 117 34 237 21 347 -17 138 -36 202 -92 317 -101 205 -275 344 -504 403 -92
24 -268 33 -364 20z m208 -436 c136 -40 221 -207 221 -432 -1 -193 -70 -341
-190 -402 -60 -30 -167 -32 -231 -3 -83 37 -153 134 -180 249 -14 63 -15 243
-1 317 7 32 23 82 37 110 72 143 201 204 344 161z"/>
<path d="M14580 7629 c-162 -21 -314 -93 -405 -191 -94 -101 -130 -210 -123
-369 3 -84 8 -104 41 -173 64 -136 162 -214 381 -305 196 -82 238 -117 238
-196 0 -48 -18 -74 -65 -96 -111 -50 -336 -1 -514 112 l-63 39 0 -230 0 -230
28 -11 c73 -28 214 -59 319 -70 418 -43 735 89 834 349 33 88 38 232 10 319
-46 144 -148 242 -351 340 -63 30 -152 73 -198 95 -59 28 -89 49 -103 71 -41
67 -14 132 66 163 37 14 65 16 148 11 108 -6 195 -28 305 -77 l62 -29 0 213 0
213 -97 22 c-173 38 -363 49 -513 30z"/>
<path d="M6180 6770 l0 -840 255 0 255 0 0 315 0 315 290 0 290 0 0 -315 0
-315 255 0 255 0 0 840 0 840 -255 0 -255 0 0 -310 0 -310 -290 0 -290 0 0
310 0 310 -255 0 -255 0 0 -840z"/>
<path d="M8540 7608 c-1 -2 -131 -379 -289 -838 l-288 -835 270 -3 c148 -1
272 -1 274 2 2 2 20 64 39 137 19 74 37 142 40 152 5 16 26 17 254 17 l249 0
10 -37 c5 -21 22 -91 37 -155 l28 -118 273 0 c150 0 273 3 273 8 0 7 -168 528
-431 1335 l-110 337 -314 0 c-173 0 -315 -1 -315 -2z m314 -420 c4 -29 36
-169 72 -310 35 -142 64 -262 64 -268 0 -6 -55 -10 -155 -10 -85 0 -155 3
-155 6 0 3 34 138 75 300 41 162 75 303 75 314 0 42 18 18 24 -32z"/>
<path d="M9910 6770 l0 -840 227 0 226 0 -7 503 c-3 276 -9 565 -12 642 -7
160 4 170 29 25 9 -52 79 -337 154 -633 l138 -537 240 2 239 3 123 500 c67
275 134 559 149 630 15 72 30 133 33 137 3 4 5 -281 3 -632 l-4 -640 251 0
251 0 0 840 0 840 -374 0 -374 0 -12 -47 c-66 -265 -206 -877 -224 -983 -19
-107 -25 -128 -29 -100 -4 19 -11 67 -17 105 -8 54 -172 726 -241 988 l-10 37
-379 0 -380 0 0 -840z"/>
<path d="M15909 7583 c-15 -39 -569 -1645 -569 -1649 0 -2 123 -4 274 -4 l273
0 39 153 39 152 251 3 251 2 27 -117 c15 -65 32 -135 37 -155 l10 -38 275 0
c217 0 275 3 272 13 -3 6 -126 384 -273 840 l-268 827 -314 0 -313 0 -11 -27z
m325 -413 c4 -25 36 -160 71 -301 36 -142 65 -260 65 -263 0 -3 -70 -6 -155
-6 -129 0 -155 2 -155 15 0 8 29 126 64 262 36 136 70 274 77 306 13 63 22 59
33 -13z"/>
<path d="M17290 6769 l0 -840 438 4 c477 4 496 6 646 66 255 102 427 318 481
606 23 120 16 344 -14 460 -81 314 -301 488 -674 535 -45 5 -260 10 -479 10
l-398 0 0 -841z m812 409 c108 -50 190 -152 217 -269 15 -64 13 -215 -3 -276
-33 -123 -98 -209 -198 -264 -61 -33 -67 -34 -195 -37 l-133 -4 0 442 0 442
128 -4 c112 -3 134 -6 184 -30z"/>
<path d="M6975 5749 c-382 -263 -794 -431 -1312 -535 l-23 -4 0 -471 0 -471
53 7 c307 38 615 126 804 231 34 19 64 34 67 34 3 0 6 -682 6 -1515 l0 -1515
630 0 630 0 0 2155 0 2155 -377 -1 -378 -1 -100 -69z"/>
<path d="M10450 5794 c-304 -28 -593 -114 -823 -246 -558 -319 -917 -952
-1003 -1768 -20 -195 -15 -666 10 -830 57 -380 150 -644 313 -889 73 -109 263
-302 367 -371 149 -99 326 -172 511 -209 681 -137 1332 101 1671 609 118 178
198 377 234 584 62 360 15 746 -126 1030 -202 407 -553 610 -1004 581 -297
-18 -523 -111 -701 -286 -39 -38 -73 -69 -77 -69 -14 0 7 160 33 259 94 357
346 607 681 676 104 21 333 21 462 0 119 -20 286 -74 370 -121 34 -18 65 -34
69 -34 6 0 -5 981 -11 987 -9 9 -252 64 -346 78 -111 16 -525 28 -630 19z
m-82 -2419 c130 -71 193 -219 194 -455 0 -267 -77 -437 -230 -508 -71 -32
-176 -34 -243 -5 -97 43 -173 138 -217 271 -22 67 -25 95 -26 217 0 212 45
349 145 439 69 62 113 76 229 73 83 -2 102 -6 148 -32z"/>
<path d="M12570 5713 c0 -26 -149 -2401 -154 -2462 l-5 -53 27 5 c530 97 985
88 1221 -25 91 -43 180 -133 210 -212 43 -115 37 -255 -14 -356 -32 -64 -123
-146 -200 -181 -132 -60 -313 -82 -540 -68 -255 17 -472 73 -712 185 l-93 43
0 -489 0 -488 63 -21 c183 -60 507 -120 775 -142 178 -15 530 -6 669 16 621
98 1077 456 1247 979 93 282 100 635 20 914 -102 355 -369 624 -739 746 -181
60 -490 89 -725 68 -63 -6 -115 -10 -116 -9 0 1 8 134 19 295 l20 292 709 0
708 0 0 490 0 490 -1195 0 c-1113 0 -1195 -1 -1195 -17z"/>
<path d="M15830 5240 l0 -490 916 0 c504 0 914 -4 912 -8 -1 -4 -87 -148 -190
-319 -300 -499 -469 -817 -621 -1174 -160 -374 -276 -715 -367 -1084 -51 -206
-130 -595 -130 -641 0 -12 91 -14 650 -14 l650 0 5 23 c2 12 12 65 20 117 126
766 366 1557 686 2259 97 213 296 603 448 878 l111 203 0 370 0 370 -1545 0
-1545 0 0 -490z"/>
<path d="M3907 4513 c-14 -16 -242 -212 -506 -438 -299 -255 -483 -419 -487
-434 -4 -15 1 -39 14 -67 l22 -44 -120 0 c-66 0 -120 2 -120 5 0 4 7 20 16 36
33 65 43 55 -458 484 -257 220 -485 417 -508 438 -39 34 -46 37 -103 37 -34 0
-69 -4 -77 -9 -8 -6 -117 -112 -241 -237 -225 -226 -226 -227 -250 -211 -35
25 -78 21 -186 -19 -399 -148 -611 -343 -690 -634 -34 -125 -12 -577 32 -684
12 -29 20 -34 61 -40 26 -3 168 -6 315 -6 148 0 269 -2 269 -3 0 -2 -9 -30
-21 -63 -124 -359 -75 -618 194 -1021 125 -186 258 -355 698 -885 216 -260
410 -494 431 -520 22 -26 48 -50 58 -53 30 -10 60 12 60 43 0 25 -110 479
-581 2392 -108 443 -197 806 -196 807 1 0 148 -154 326 -343 371 -394 356
-384 423 -291 12 16 26 1 131 -141 65 -87 128 -164 139 -171 14 -9 99 -14 288
-18 l268 -6 55 84 c30 46 85 131 122 189 l67 104 25 -42 c24 -40 28 -43 63
-40 35 3 58 24 360 346 177 189 324 342 325 340 2 -2 -174 -725 -391 -1608
-217 -883 -393 -1611 -392 -1619 4 -21 32 -35 59 -28 15 4 68 61 144 154 66
81 243 296 394 477 548 659 686 848 807 1101 80 167 98 242 98 405 0 139 -12
203 -63 353 l-20 57 112 1 c62 1 204 5 317 8 l205 6 17 35 c46 99 69 550 35
680 -79 295 -301 497 -711 645 -104 38 -156 40 -176 6 -8 -13 -50 25 -249 227
l-240 242 -68 0 c-62 0 -72 -3 -96 -27z m357 -293 c146 -148 224 -235 219
-243 -4 -7 -72 -95 -152 -196 -96 -122 -272 -319 -515 -578 -203 -216 -370
-392 -371 -391 -2 2 -102 184 -223 405 l-219 401 485 416 c419 359 490 416
517 416 29 0 57 -26 259 -230z m-2112 -185 c260 -223 477 -411 481 -418 6 -8
-68 -152 -209 -410 l-218 -398 -22 23 c-41 43 -639 684 -680 729 -31 34 -260
319 -327 407 -8 10 47 71 214 241 194 198 228 228 256 230 28 1 86 -46 505
-404z"/>
<path d="M2592 2357 c-6 -7 -61 -228 -123 -491 l-112 -480 52 -605 c36 -430
55 -609 65 -619 10 -10 93 -14 362 -19 306 -5 351 -4 362 9 8 10 29 208 62
599 28 321 51 598 51 614 2 51 -240 978 -258 993 -24 17 -446 17 -461 -1z"/>
</g>
</svg>
